G04 Layer_Physical_Order=1*
G04 Layer_Color=255*
%FSLAX25Y25*%
%MOIN*%
G70*
G01*
G75*
%ADD10R,0.04134X0.08661*%
%ADD11R,0.03937X0.04134*%
%ADD12R,0.03937X0.02362*%
%ADD13R,0.03543X0.02756*%
%ADD14R,0.03740X0.02953*%
%ADD15R,0.03937X0.03543*%
%ADD16R,0.03543X0.03937*%
%ADD17O,0.07874X0.02756*%
%ADD18R,0.04134X0.03937*%
%ADD19R,0.02756X0.03543*%
%ADD20R,0.02953X0.03740*%
%ADD21R,0.01968X0.03150*%
%ADD22R,0.03150X0.01968*%
%ADD23R,0.06299X0.06299*%
%ADD24R,0.03937X0.03937*%
%ADD25R,0.03150X0.06693*%
%ADD26R,0.03937X0.03543*%
%ADD27R,0.03150X0.03150*%
%ADD28C,0.01000*%
%ADD29C,0.01500*%
%ADD30C,0.01200*%
%ADD31C,0.00800*%
%ADD32C,0.02500*%
%ADD33C,0.00600*%
%ADD34C,0.00799*%
%ADD35R,0.03937X0.03937*%
%ADD36C,0.02400*%
G36*
X98425Y93169D02*
X94488D01*
X94029Y92979D01*
X93839Y92520D01*
Y91634D01*
X90551D01*
X90551Y91634D01*
X89786Y91316D01*
X89786Y91316D01*
X78644Y80174D01*
X71279D01*
X71129Y80535D01*
X70670Y80726D01*
X67520D01*
X67061Y80535D01*
X66871Y80076D01*
Y78108D01*
X66963Y77886D01*
X67035Y77517D01*
X66963Y77148D01*
X66871Y76927D01*
Y74958D01*
X67061Y74499D01*
X67061Y74236D01*
X66871Y73777D01*
Y71808D01*
X66963Y71587D01*
X67035Y71218D01*
X66963Y70849D01*
X66871Y70627D01*
Y68659D01*
X67061Y68200D01*
X67061Y67937D01*
X66871Y67478D01*
Y65509D01*
X67061Y65050D01*
X67061Y64787D01*
X66871Y64328D01*
Y62360D01*
X66963Y62138D01*
X67035Y61769D01*
X66963Y61400D01*
X66871Y61179D01*
Y59210D01*
X67061Y58751D01*
X67061Y58488D01*
X66871Y58029D01*
Y56060D01*
X67061Y55601D01*
X67061Y55339D01*
X66871Y54879D01*
Y52911D01*
X66963Y52689D01*
X67035Y52320D01*
X66963Y51951D01*
X66871Y51730D01*
Y49761D01*
X67061Y49302D01*
X67061Y49039D01*
X66871Y48580D01*
Y46612D01*
X66963Y46390D01*
X67035Y46021D01*
X66963Y45652D01*
X66871Y45430D01*
Y43462D01*
X67061Y43003D01*
X67520Y42813D01*
X70670D01*
X71129Y43003D01*
X71320Y43462D01*
Y45430D01*
X71228Y45652D01*
X71146Y46069D01*
X71444Y46514D01*
X77872D01*
X77930Y46456D01*
Y18132D01*
X68325Y8527D01*
X68008Y7762D01*
X68008Y7762D01*
Y4586D01*
X67122D01*
X66663Y4396D01*
X66473Y3937D01*
Y0D01*
X56149D01*
Y8351D01*
X65347D01*
X65466Y8400D01*
X65595D01*
X65687Y8491D01*
X65806Y8541D01*
X65855Y8660D01*
X65947Y8751D01*
X66138Y9213D01*
Y9343D01*
X66188Y9462D01*
X66149Y9554D01*
Y13500D01*
X66036Y13773D01*
Y14567D01*
X66028Y14588D01*
X66289Y15237D01*
X66291Y15238D01*
X66665Y16142D01*
Y20276D01*
X66291Y21180D01*
X65387Y21554D01*
X61450D01*
X60546Y21180D01*
X60171Y20276D01*
Y16142D01*
X60546Y15238D01*
X60548Y15237D01*
X60784Y14649D01*
X60591Y14149D01*
X59773D01*
X59660Y14319D01*
Y14909D01*
X56413D01*
Y16091D01*
X59660D01*
Y16681D01*
X59439Y17216D01*
X59459Y17224D01*
X59649Y17683D01*
Y20500D01*
X59459Y20959D01*
X59000Y21149D01*
X51500D01*
X51041Y20959D01*
X50851Y20500D01*
Y16521D01*
X50350Y16304D01*
X50000Y16449D01*
X41247D01*
Y17764D01*
X38000D01*
X34753D01*
Y16449D01*
X34200D01*
X33741Y16259D01*
X33551Y15800D01*
Y14107D01*
X20580D01*
X18461Y16226D01*
Y28686D01*
X19161Y29386D01*
X21030D01*
Y29075D01*
X21108Y28887D01*
X20916Y28266D01*
X20775Y28207D01*
X20401Y27304D01*
Y26122D01*
X26894D01*
Y27304D01*
X26520Y28207D01*
X26379Y28266D01*
X26187Y28887D01*
X26265Y29075D01*
Y29386D01*
X28133D01*
Y28386D01*
X28141Y28366D01*
X27880Y27716D01*
X27878Y27715D01*
X27504Y26811D01*
Y25335D01*
X33998D01*
Y26811D01*
X33623Y27715D01*
X33621Y27716D01*
X33360Y28366D01*
X33369Y28386D01*
Y29583D01*
X35335D01*
Y29567D01*
X35525Y29108D01*
X35984Y28918D01*
X39724D01*
X40183Y29108D01*
X40374Y29567D01*
Y30950D01*
X41782Y32359D01*
X41782Y32359D01*
X42210Y33392D01*
Y37083D01*
X42682Y37368D01*
X42766Y37362D01*
X42914Y37301D01*
X44883D01*
X45342Y37491D01*
X45605Y37491D01*
X46064Y37301D01*
X48032D01*
X48239Y37215D01*
X48309Y37046D01*
X49213Y36672D01*
X49607D01*
Y39525D01*
Y42378D01*
X49213D01*
X48309Y42004D01*
X48239Y41835D01*
X48032Y41749D01*
X46064D01*
X45605Y41559D01*
X45342Y41559D01*
X44883Y41749D01*
X42914D01*
X42432Y42090D01*
X42432Y44575D01*
X42408Y44633D01*
X42420Y44695D01*
X42315Y44856D01*
X42241Y45035D01*
X42183Y45059D01*
X42149Y45111D01*
X40945Y45936D01*
X40756Y45976D01*
X40578Y46049D01*
X34558Y46049D01*
X34149Y46459D01*
X34149Y57803D01*
X34649Y57902D01*
X34727Y57715D01*
X35631Y57341D01*
X38190D01*
Y61769D01*
Y66197D01*
X35631D01*
X34727Y65823D01*
X34649Y65636D01*
X34149Y65736D01*
Y67645D01*
X34649Y67745D01*
X34727Y67558D01*
X35631Y67184D01*
X38190D01*
Y71612D01*
X38780D01*
Y72202D01*
X43208D01*
Y74761D01*
X43114Y74989D01*
X43406Y75590D01*
X43528Y75641D01*
X45428Y77541D01*
X45618Y78000D01*
Y78103D01*
X46118Y78437D01*
X47048Y78052D01*
X48426Y78622D01*
X48996Y80000D01*
X48426Y81378D01*
X48644Y81813D01*
X48886Y81925D01*
X49213Y81789D01*
X51182D01*
X51641Y81979D01*
X51904Y81979D01*
X52363Y81789D01*
X54331D01*
X54791Y81979D01*
X55053Y81979D01*
X55513Y81789D01*
X57481D01*
X57688Y81703D01*
X57758Y81534D01*
X58662Y81160D01*
X59056D01*
Y84013D01*
Y86866D01*
X58662D01*
X57758Y86492D01*
X57688Y86323D01*
X57481Y86238D01*
X55513D01*
X55053Y86047D01*
X54791Y86047D01*
X54331Y86238D01*
X52363D01*
X51904Y86047D01*
X51641Y86047D01*
X51182Y86238D01*
X49213D01*
X48754Y86047D01*
X48491Y86047D01*
X48032Y86238D01*
X46064D01*
X46034Y86225D01*
X45618Y86503D01*
Y87966D01*
X45972Y88319D01*
X46379D01*
X46567Y88397D01*
X46764Y88446D01*
X47132Y88717D01*
X47706Y88638D01*
Y88638D01*
X47706Y88638D01*
X48610Y88263D01*
X50087D01*
Y91510D01*
X50677D01*
Y92101D01*
X54023D01*
Y93479D01*
X53919Y93729D01*
X54000Y93850D01*
X54459Y94041D01*
X56459Y96041D01*
X56649Y96500D01*
X56649Y104476D01*
X61100Y104476D01*
X61559Y104666D01*
X61959Y105066D01*
X62150Y105526D01*
X62149Y108600D01*
X62124Y108662D01*
X62137Y108727D01*
X62032Y108885D01*
X61959Y109059D01*
X61897Y109085D01*
X61860Y109140D01*
X61260Y109540D01*
X61075Y109577D01*
X60900Y109649D01*
X57146D01*
X57146Y112565D01*
X57646Y112664D01*
X57789Y112320D01*
X58248Y112130D01*
X60516D01*
X63153Y109493D01*
X63141Y109430D01*
X62950Y108971D01*
Y105427D01*
X63141Y104968D01*
X63600Y104778D01*
X66356D01*
X66815Y104968D01*
X67005Y105427D01*
Y108971D01*
X66815Y109430D01*
X66356Y109620D01*
X65886D01*
X65743Y109965D01*
X65743Y109965D01*
X64707Y111001D01*
X64914Y111501D01*
X65531D01*
Y113764D01*
X63269D01*
Y113146D01*
X62769Y112939D01*
X62047Y113661D01*
Y115929D01*
X61857Y116388D01*
X61398Y116579D01*
X58248D01*
X57789Y116388D01*
X57646Y116044D01*
X57146Y116144D01*
X57146Y122203D01*
X57136Y122228D01*
X57144Y122253D01*
X57042Y122454D01*
X56956Y122662D01*
X56931Y122673D01*
X56919Y122696D01*
X54823Y124493D01*
X54608Y124563D01*
X54400Y124649D01*
X47D01*
Y126000D01*
X98425D01*
Y93169D01*
D02*
G37*
G36*
X93839Y72835D02*
X94029Y72375D01*
X94488Y72185D01*
X98425D01*
Y69547D01*
X94488D01*
X94029Y69357D01*
X93839Y68898D01*
Y68011D01*
X92491D01*
X90094Y70408D01*
X89328Y70726D01*
X89328Y70726D01*
X71279D01*
X71129Y71087D01*
X71129Y71272D01*
X71465Y71710D01*
X88541D01*
X88541Y71710D01*
X89306Y72027D01*
X91000Y73721D01*
X93839D01*
Y72835D01*
D02*
G37*
G36*
X11418Y29765D02*
Y11000D01*
X11418Y11000D01*
X11735Y10235D01*
X14235Y7735D01*
X14235Y7735D01*
X15000Y7418D01*
X20539D01*
X20764Y7193D01*
Y4586D01*
X19878D01*
X19419Y4396D01*
X19229Y3937D01*
Y0D01*
X547D01*
X47Y500D01*
Y24941D01*
X3937D01*
X4396Y25131D01*
X4586Y25591D01*
Y26477D01*
X7028D01*
X7028Y26477D01*
X7793Y26794D01*
X10956Y29956D01*
X11418Y29765D01*
D02*
G37*
G36*
X7240Y60534D02*
Y53803D01*
X5701Y52263D01*
X4586D01*
Y53150D01*
X4396Y53609D01*
X3937Y53799D01*
X47D01*
Y56437D01*
X3937D01*
X4396Y56627D01*
X4586Y57087D01*
Y58587D01*
X6740Y60741D01*
X7240Y60534D01*
D02*
G37*
G36*
X32884Y86570D02*
X32644Y86119D01*
X32506Y86146D01*
X32284Y86238D01*
X30316D01*
X29857Y86047D01*
X29666Y85588D01*
Y85096D01*
X15710D01*
X15710Y85096D01*
X14945Y84779D01*
X14945Y84779D01*
X6052Y75885D01*
X4586D01*
Y76772D01*
X4396Y77231D01*
X3937Y77421D01*
X47D01*
Y80059D01*
X3937D01*
X4396Y80250D01*
X4586Y80709D01*
Y81595D01*
X8000D01*
X8000Y81595D01*
X8765Y81912D01*
X13771Y86918D01*
X32526D01*
X32884Y86570D01*
D02*
G37*
G36*
X92852Y58290D02*
X93617Y57973D01*
X93839Y57541D01*
Y57087D01*
X94029Y56627D01*
X94488Y56437D01*
X98425D01*
Y53799D01*
X94488D01*
X94029Y53609D01*
X93664Y53536D01*
X83091Y64109D01*
X82325Y64426D01*
X82325Y64426D01*
X71279D01*
X71129Y64787D01*
X71129Y64973D01*
X71465Y65411D01*
X85730D01*
X92852Y58290D01*
D02*
G37*
G36*
X89786Y34668D02*
X89786Y34668D01*
X90551Y34351D01*
X93839D01*
Y33465D01*
X94029Y33005D01*
X94488Y32815D01*
X98425D01*
Y30177D01*
X94488D01*
X94029Y29987D01*
X93839Y29528D01*
Y28937D01*
X87271D01*
X85405Y30803D01*
Y38395D01*
X85640Y38506D01*
X85905Y38548D01*
X89786Y34668D01*
D02*
G37*
G36*
X56497Y122203D02*
X56497Y109000D01*
X60900D01*
X61500Y108600D01*
X61500Y105526D01*
X61100Y105125D01*
X56000Y105125D01*
X56000Y96500D01*
X54000Y94500D01*
X47800D01*
X47100Y93651D01*
X47100Y89500D01*
X46379Y88968D01*
X44969Y88968D01*
Y82500D01*
Y78000D01*
X43069Y76100D01*
X34200Y76100D01*
X33500Y75400D01*
X33500Y46000D01*
X34100Y45400D01*
X40578Y45400D01*
X41782Y44575D01*
X41782Y37861D01*
X39765D01*
X39764Y42723D01*
X38788Y43700D01*
X31300Y43700D01*
X31300Y77163D01*
X32137Y78000D01*
X41930D01*
X43038Y79109D01*
X43005Y82500D01*
X42900D01*
Y95300D01*
X44100Y96500D01*
X52682Y96500D01*
X53683Y97697D01*
X53683Y105125D01*
X53683D01*
X53683Y121017D01*
X52800Y121900D01*
X8000Y121900D01*
X8000Y120854D01*
X7646Y120500D01*
X0Y120500D01*
X0Y124000D01*
X54400D01*
X56497Y122203D01*
D02*
G37*
G36*
X10740Y44588D02*
Y40803D01*
X6453Y36516D01*
X4586D01*
Y37402D01*
X4396Y37861D01*
X3937Y38051D01*
X47D01*
Y40689D01*
X3937D01*
X4396Y40879D01*
X4586Y41339D01*
Y42272D01*
X7323D01*
X7323Y42272D01*
X8088Y42589D01*
X10278Y44779D01*
X10740Y44588D01*
D02*
G37*
G36*
X93723Y50416D02*
X93723Y50416D01*
X93839Y50368D01*
Y49213D01*
X94029Y48753D01*
X94488Y48563D01*
X98425D01*
Y45925D01*
X94488D01*
X94029Y45735D01*
X93664Y45662D01*
X91634Y47692D01*
Y51181D01*
X91634Y51181D01*
X91316Y51947D01*
X91316Y51947D01*
X82303Y60960D01*
X81538Y61277D01*
X81538Y61277D01*
X71279D01*
X71129Y61638D01*
X71129Y61823D01*
X71465Y62261D01*
X81877D01*
X93723Y50416D01*
D02*
G37*
G36*
X12740Y39034D02*
Y34803D01*
X6579Y28641D01*
X4586D01*
Y29528D01*
X4396Y29987D01*
X3937Y30177D01*
X47D01*
Y32815D01*
X3937D01*
X4396Y33005D01*
X4586Y33465D01*
Y34351D01*
X6902D01*
X6902Y34351D01*
X7667Y34668D01*
X12240Y39241D01*
X12740Y39034D01*
D02*
G37*
G36*
X89469Y50733D02*
Y47244D01*
X89469Y47244D01*
X89786Y46479D01*
X93723Y42542D01*
X93723Y42542D01*
X93839Y42494D01*
Y41339D01*
X94029Y40879D01*
X94488Y40689D01*
X98425D01*
Y38051D01*
X94488D01*
X94029Y37861D01*
X93839Y37402D01*
Y36516D01*
X91000D01*
X87697Y39818D01*
Y51181D01*
X87697Y51181D01*
X87379Y51947D01*
X87379Y51947D01*
X81516Y57810D01*
X80751Y58127D01*
X80751Y58127D01*
X71279D01*
X71129Y58488D01*
X71129Y58674D01*
X71465Y59112D01*
X81090D01*
X89469Y50733D01*
D02*
G37*
G36*
X52531Y121250D02*
X53034Y120748D01*
X53034Y105125D01*
X53034Y105125D01*
X53034Y97933D01*
X52378Y97149D01*
X44802Y97149D01*
X44611Y97611D01*
X49514Y102515D01*
X49514Y102515D01*
X49831Y103280D01*
X49831Y103280D01*
Y104778D01*
X50127D01*
X50586Y104968D01*
X50776Y105427D01*
Y108971D01*
X50586Y109430D01*
X50127Y109620D01*
X47371D01*
X46912Y109430D01*
X46721Y108971D01*
Y105427D01*
X46912Y104968D01*
X47371Y104778D01*
X47666D01*
Y103729D01*
X39983Y96046D01*
X39666Y95280D01*
X39666Y95280D01*
Y86197D01*
X39305Y86047D01*
X39120Y86047D01*
X38682Y86383D01*
Y88901D01*
X38682Y88901D01*
X38365Y89666D01*
X38365Y89666D01*
X35415Y92616D01*
X34649Y92933D01*
X34649Y92933D01*
X33296D01*
Y93819D01*
X33106Y94279D01*
X32647Y94469D01*
X32003D01*
Y97811D01*
X32890D01*
X33349Y98001D01*
X33539Y98460D01*
Y102004D01*
X33349Y102463D01*
X32890Y102653D01*
X30378D01*
X28582Y104448D01*
Y112504D01*
X30031Y113953D01*
X32890D01*
X33349Y114143D01*
X33539Y114602D01*
Y118146D01*
X33349Y118605D01*
X32890Y118795D01*
X28953D01*
X28493Y118605D01*
X28336Y118225D01*
X28261Y118212D01*
X27911D01*
X27836Y118225D01*
X27494Y119049D01*
X26590Y119424D01*
X25212D01*
Y116374D01*
Y113324D01*
X26170D01*
X26418Y112953D01*
Y104000D01*
X26418Y104000D01*
X26508Y103782D01*
X26174Y103282D01*
X25212D01*
Y100232D01*
Y97182D01*
X26590D01*
X27494Y97556D01*
X27836Y98381D01*
X27911Y98394D01*
X28261D01*
X28336Y98381D01*
X28493Y98001D01*
X28953Y97811D01*
X29839D01*
Y94469D01*
X29103D01*
X28915Y94390D01*
X28294Y94582D01*
X28236Y94723D01*
X27332Y95098D01*
X26151D01*
Y91851D01*
X25560D01*
Y91260D01*
X22510D01*
Y89882D01*
X22669Y89498D01*
X22391Y89082D01*
X13323D01*
X13323Y89082D01*
X12558Y88765D01*
X12558Y88765D01*
X7552Y83760D01*
X4586D01*
Y84646D01*
X4396Y85105D01*
X3937Y85295D01*
X47D01*
Y99638D01*
X463Y99916D01*
X1264Y99584D01*
X3232D01*
Y102354D01*
X3823D01*
Y102945D01*
X8907D01*
X8341Y104313D01*
X6927Y104898D01*
Y105439D01*
X7896Y105841D01*
X8074Y106272D01*
X10311D01*
X10433Y105977D01*
X11811Y105406D01*
X13189Y105977D01*
X13759Y107354D01*
X13189Y108732D01*
X11811Y109303D01*
X10433Y108732D01*
X10311Y108437D01*
X8074D01*
X7896Y108868D01*
X6382Y109495D01*
X1264D01*
X463Y109164D01*
X47Y109441D01*
Y110267D01*
X463Y110545D01*
X1264Y110213D01*
X6382D01*
X7896Y110840D01*
X8119Y111380D01*
X10278D01*
X10445Y110977D01*
X11823Y110406D01*
X13201Y110977D01*
X13771Y112354D01*
X13201Y113732D01*
X11823Y114303D01*
X10445Y113732D01*
X10278Y113329D01*
X8119D01*
X7896Y113868D01*
X6382Y114495D01*
X1264D01*
X463Y114164D01*
X47Y114441D01*
Y115267D01*
X463Y115545D01*
X1264Y115213D01*
X6382D01*
X7896Y115840D01*
X8074Y116272D01*
X10500D01*
X10622Y115977D01*
X12000Y115406D01*
X13378Y115977D01*
X13948Y117354D01*
X13378Y118732D01*
X12000Y119303D01*
X10622Y118732D01*
X10500Y118437D01*
X8074D01*
X7896Y118868D01*
X6731Y119351D01*
X6831Y119851D01*
X7646D01*
X8106Y120041D01*
X8459Y120394D01*
X8649Y120853D01*
X8729Y120976D01*
X9003Y121251D01*
X52531Y121250D01*
D02*
G37*
G36*
X81227Y46728D02*
Y11872D01*
X76199Y6844D01*
X75882Y6079D01*
X75882Y6079D01*
Y4586D01*
X74996D01*
X74537Y4396D01*
X74347Y3937D01*
Y0D01*
X71709D01*
Y3937D01*
X71518Y4396D01*
X71059Y4586D01*
X70173D01*
Y7314D01*
X79777Y16918D01*
X79777Y16918D01*
X80094Y17683D01*
X80094Y17683D01*
Y46904D01*
X80094Y46904D01*
X79918Y47330D01*
X80342Y47613D01*
X81227Y46728D01*
D02*
G37*
G36*
X86057Y27089D02*
X86058Y27089D01*
X86823Y26772D01*
X93839D01*
Y25591D01*
X94029Y25131D01*
X94488Y24941D01*
X98425D01*
Y0D01*
X79583D01*
Y3937D01*
X79392Y4396D01*
X78933Y4586D01*
X78047D01*
Y5631D01*
X83075Y10659D01*
X83075Y10659D01*
X83392Y11424D01*
X83392Y11424D01*
Y29047D01*
X83892Y29254D01*
X86057Y27089D01*
D02*
G37*
G36*
X50000Y10198D02*
X49601Y9955D01*
X40000Y9955D01*
Y-0D01*
X34200D01*
Y15800D01*
X35640D01*
X36031Y15638D01*
X39968D01*
X40360Y15800D01*
X50000D01*
Y10198D01*
D02*
G37*
G36*
X59000Y17683D02*
X53683D01*
X53500Y17500D01*
Y13500D01*
X65500D01*
Y9500D01*
X65538Y9462D01*
X65347Y9000D01*
X55500D01*
Y0D01*
X51500D01*
Y13500D01*
Y20500D01*
X59000D01*
Y17683D01*
D02*
G37*
G36*
X28166Y5048D02*
X27974Y4586D01*
X27752D01*
X27293Y4396D01*
X27103Y3937D01*
Y0D01*
X24464D01*
Y3937D01*
X24274Y4396D01*
X23815Y4586D01*
X22929D01*
Y7641D01*
X22929Y7641D01*
X22612Y8406D01*
X22798Y8868D01*
X22799Y8872D01*
X24342D01*
X28166Y5048D01*
D02*
G37*
G36*
X33551Y0D02*
X32338D01*
Y3937D01*
X32148Y4396D01*
X31689Y4586D01*
X31018D01*
X30803Y5024D01*
X30486Y5790D01*
X30486Y5790D01*
X25591Y10684D01*
X25608Y10851D01*
X25741Y11184D01*
X33551D01*
Y0D01*
D02*
G37*
G36*
X50851Y9353D02*
Y4241D01*
X50725Y3937D01*
Y0D01*
X40649D01*
Y9305D01*
X49601Y9305D01*
X49764Y9373D01*
X49938Y9400D01*
X50338Y9643D01*
X50351Y9661D01*
X50427Y9662D01*
X50851Y9353D01*
D02*
G37*
G36*
X93839Y88583D02*
X94029Y88124D01*
X94488Y87933D01*
X98425D01*
Y85295D01*
X94488D01*
X94029Y85105D01*
X93839Y84646D01*
Y83760D01*
X90551D01*
X90551Y83760D01*
X89786Y83442D01*
X83368Y77025D01*
X71279D01*
X71129Y77386D01*
X71129Y77571D01*
X71465Y78010D01*
X79092D01*
X79092Y78010D01*
X79857Y78327D01*
X91000Y89469D01*
X93839D01*
Y88583D01*
D02*
G37*
G36*
X26116Y61901D02*
X26116Y61715D01*
X25781Y61277D01*
X24663D01*
X24663Y61277D01*
X23898Y60960D01*
X23897Y60960D01*
X23271Y60333D01*
X22681Y60451D01*
X22498Y60892D01*
X21595Y61267D01*
X20413D01*
Y58610D01*
Y55954D01*
X21595D01*
X21686Y55992D01*
X22126Y55698D01*
Y55333D01*
X21732Y55069D01*
X21595Y55126D01*
X18051D01*
X17592Y54936D01*
X17402Y54476D01*
Y51720D01*
X17592Y51261D01*
X18051Y51071D01*
X18740D01*
Y49204D01*
X18051D01*
X17592Y49013D01*
X17402Y48554D01*
Y45798D01*
X17592Y45339D01*
X18051Y45149D01*
X21595D01*
X22054Y45339D01*
X22244Y45798D01*
Y48066D01*
X24088Y49911D01*
X24088Y49911D01*
X24405Y50676D01*
X24405Y50676D01*
Y58406D01*
X24807Y58807D01*
X25068Y58782D01*
X25388Y58248D01*
X25297Y58029D01*
Y57635D01*
X28150D01*
Y56454D01*
X25297D01*
Y56060D01*
X25672Y55156D01*
X25840Y55087D01*
X25926Y54879D01*
Y52911D01*
X26018Y52689D01*
X26090Y52320D01*
X26018Y51951D01*
X25926Y51730D01*
Y49761D01*
X26116Y49302D01*
X26116Y49039D01*
X25926Y48580D01*
Y46612D01*
X26018Y46390D01*
X26116Y45890D01*
X26008Y45629D01*
X25647Y45480D01*
X23293Y43126D01*
X22209D01*
X22054Y43501D01*
X21595Y43692D01*
X18051D01*
X17592Y43501D01*
X17402Y43042D01*
Y40286D01*
X17592Y39827D01*
X18051Y39637D01*
X21595D01*
X22054Y39827D01*
X22209Y40203D01*
X23899D01*
X23899Y40203D01*
X24932Y40631D01*
X27114Y42813D01*
X29725D01*
X30141Y42985D01*
X32454D01*
X32612Y43051D01*
X38302Y43051D01*
X38466Y42878D01*
X38421Y42667D01*
X38190Y42382D01*
Y39525D01*
Y36672D01*
X38583D01*
X38872Y36791D01*
X39288Y36514D01*
Y33997D01*
X38460Y33169D01*
X35984D01*
X35525Y32979D01*
X35335Y32520D01*
Y32505D01*
X33369D01*
Y32520D01*
X33178Y32979D01*
X32719Y33169D01*
X28782D01*
X28323Y32979D01*
X28133Y32520D01*
Y32308D01*
X26265D01*
Y32618D01*
X26075Y33078D01*
X25616Y33268D01*
X21679D01*
X21220Y33078D01*
X21030Y32618D01*
Y32308D01*
X18555D01*
X18555Y32308D01*
X17686Y31948D01*
X17403Y32372D01*
X19948Y34918D01*
X32941D01*
X32941Y34918D01*
X33707Y35235D01*
X35215Y36743D01*
X35215Y36743D01*
X35258Y36846D01*
X35770Y37022D01*
X36615Y36672D01*
X37009D01*
Y39525D01*
Y42378D01*
X36615D01*
X35711Y42004D01*
X35641Y41835D01*
X35434Y41749D01*
X33465D01*
X33244Y41658D01*
X32875Y41585D01*
X32506Y41658D01*
X32284Y41749D01*
X30316D01*
X29857Y41559D01*
X29666Y41100D01*
Y39422D01*
X28827Y38582D01*
X19000D01*
X18624Y38427D01*
X18245Y38276D01*
X15366Y35475D01*
X14905Y35669D01*
Y61406D01*
X15761Y62261D01*
X25967D01*
X26116Y61901D01*
D02*
G37*
G36*
X9240Y52034D02*
Y46803D01*
X6875Y44437D01*
X4586D01*
Y45276D01*
X4396Y45735D01*
X3937Y45925D01*
X47D01*
Y48563D01*
X3937D01*
X4396Y48753D01*
X4586Y49213D01*
Y50099D01*
X6150D01*
X6150Y50099D01*
X6915Y50416D01*
X8740Y52241D01*
X9240Y52034D01*
D02*
G37*
G36*
X93839Y80709D02*
X94029Y80249D01*
X94488Y80059D01*
X98425D01*
Y77421D01*
X94488D01*
X94029Y77231D01*
X93839Y76772D01*
Y75885D01*
X90551D01*
X90551Y75886D01*
X89786Y75568D01*
X89786Y75568D01*
X88092Y73875D01*
X71279D01*
X71129Y74236D01*
X71129Y74422D01*
X71465Y74860D01*
X83816D01*
X83816Y74860D01*
X84582Y75177D01*
X91000Y81595D01*
X93839D01*
Y80709D01*
D02*
G37*
G36*
X29666Y82438D02*
X29857Y81979D01*
X30316Y81789D01*
X32284D01*
X32506Y81881D01*
X32875Y81953D01*
X33244Y81881D01*
X33465Y81789D01*
X35434D01*
X35655Y81881D01*
X35759Y81901D01*
X35940Y81754D01*
X36217Y81378D01*
X35646Y80000D01*
X36033Y79065D01*
X35756Y78649D01*
X32137D01*
X31678Y78459D01*
X30986Y77767D01*
X30460Y77733D01*
X30358Y77763D01*
X30279Y77865D01*
X30283Y77886D01*
X30375Y78108D01*
Y80076D01*
X30184Y80535D01*
X29725Y80726D01*
X26576D01*
X26116Y80535D01*
X25967Y80174D01*
X14560D01*
X14560Y80174D01*
X13795Y79857D01*
X13795Y79857D01*
X3485Y69547D01*
X47D01*
Y72185D01*
X3937D01*
X4396Y72375D01*
X4586Y72835D01*
Y73721D01*
X6500D01*
X6500Y73721D01*
X7265Y74038D01*
X16158Y82931D01*
X29666D01*
Y82438D01*
D02*
G37*
G36*
X91277Y66164D02*
X92042Y65847D01*
X92042Y65847D01*
X93839D01*
Y64961D01*
X94029Y64501D01*
X94488Y64311D01*
X98425D01*
Y61673D01*
X94488D01*
X94029Y61483D01*
X93839Y61024D01*
Y61017D01*
X93377Y60826D01*
X86944Y67259D01*
X86179Y67576D01*
X86178Y67576D01*
X71279D01*
X71129Y67937D01*
X71129Y68123D01*
X71465Y68561D01*
X88880D01*
X91277Y66164D01*
D02*
G37*
%LPC*%
G36*
X48032Y56355D02*
X45473D01*
X44569Y55980D01*
X44195Y55076D01*
Y52517D01*
X48032D01*
Y56355D01*
D02*
G37*
G36*
X57875D02*
X55316D01*
X54412Y55980D01*
X54037Y55076D01*
Y52517D01*
X57875D01*
Y56355D01*
D02*
G37*
G36*
X35631Y54130D02*
X35533Y53895D01*
Y52517D01*
X35631D01*
Y54130D01*
D02*
G37*
G36*
X43208Y61179D02*
X39371D01*
Y57341D01*
X41930D01*
X42834Y57715D01*
X43208Y58619D01*
Y61179D01*
D02*
G37*
G36*
X53051D02*
X49213D01*
Y57341D01*
X51772D01*
X52676Y57715D01*
X53051Y58619D01*
Y61179D01*
D02*
G37*
G36*
X48032D02*
X44195D01*
Y58619D01*
X44569Y57715D01*
X45473Y57341D01*
X48032D01*
Y61179D01*
D02*
G37*
G36*
X40749Y55173D02*
X39371D01*
Y55076D01*
X40984D01*
X40749Y55173D01*
D02*
G37*
G36*
X61615Y56355D02*
X59056D01*
Y52517D01*
X62893D01*
Y55076D01*
X62519Y55980D01*
X61615Y56355D01*
D02*
G37*
G36*
X51772D02*
X49213D01*
Y52517D01*
X53051D01*
Y55076D01*
X52676Y55980D01*
X51772Y56355D01*
D02*
G37*
G36*
X38190Y55173D02*
X36812D01*
X36577Y55076D01*
X38190D01*
Y55173D01*
D02*
G37*
G36*
X41930Y54130D02*
Y52517D01*
X42027D01*
Y53895D01*
X41930Y54130D01*
D02*
G37*
G36*
X42027Y51336D02*
X41930D01*
Y49723D01*
X42027Y49958D01*
Y51336D01*
D02*
G37*
G36*
X26894Y24941D02*
X24238D01*
Y22482D01*
X25616D01*
X26520Y22856D01*
X26894Y23760D01*
Y24941D01*
D02*
G37*
G36*
X23057D02*
X20401D01*
Y23760D01*
X20775Y22856D01*
X21679Y22482D01*
X23057D01*
Y24941D01*
D02*
G37*
G36*
X41003Y24745D02*
X38445D01*
Y22580D01*
X39724D01*
X40628Y22955D01*
X41003Y23859D01*
Y24745D01*
D02*
G37*
G36*
X37264D02*
X34706D01*
Y23859D01*
X35080Y22955D01*
X35984Y22580D01*
X37264D01*
Y24745D01*
D02*
G37*
G36*
X33998Y24154D02*
X31341D01*
Y21399D01*
X32719D01*
X33623Y21774D01*
X33998Y22678D01*
Y24154D01*
D02*
G37*
G36*
X37409Y21700D02*
X36031D01*
X35127Y21325D01*
X34753Y20421D01*
Y18945D01*
X37409D01*
Y21700D01*
D02*
G37*
G36*
X47555Y21071D02*
X43618D01*
X43159Y20880D01*
X42969Y20421D01*
Y18059D01*
X43159Y17600D01*
X43618Y17410D01*
X47555D01*
X48014Y17600D01*
X48205Y18059D01*
Y20421D01*
X48014Y20880D01*
X47555Y21071D01*
D02*
G37*
G36*
X30160Y24154D02*
X27504D01*
Y22678D01*
X27878Y21774D01*
X28782Y21399D01*
X30160D01*
Y24154D01*
D02*
G37*
G36*
X39968Y21700D02*
X38590D01*
Y18945D01*
X41247D01*
Y20421D01*
X40872Y21325D01*
X39968Y21700D01*
D02*
G37*
G36*
X62893Y51336D02*
X59056D01*
Y47499D01*
X61615D01*
X62519Y47873D01*
X62893Y48777D01*
Y51336D01*
D02*
G37*
G36*
X57875D02*
X54037D01*
Y48777D01*
X54412Y47873D01*
X55316Y47499D01*
X57875D01*
Y51336D01*
D02*
G37*
G36*
X40984Y48777D02*
X39371D01*
Y48680D01*
X40749D01*
X40984Y48777D01*
D02*
G37*
G36*
X35631Y51336D02*
X35533D01*
Y49958D01*
X35908Y49054D01*
X36812Y48680D01*
X38190D01*
Y48777D01*
X37599D01*
X35631Y50745D01*
Y51336D01*
D02*
G37*
G36*
X53051D02*
X49213D01*
Y47499D01*
X51772D01*
X52676Y47873D01*
X53051Y48777D01*
Y51336D01*
D02*
G37*
G36*
X39724Y28090D02*
X38445D01*
Y25926D01*
X41003D01*
Y26811D01*
X40628Y27715D01*
X39724Y28090D01*
D02*
G37*
G36*
X37264D02*
X35984D01*
X35080Y27715D01*
X34706Y26811D01*
Y25926D01*
X37264D01*
Y28090D01*
D02*
G37*
G36*
X48032Y51336D02*
X44195D01*
Y48777D01*
X44569Y47873D01*
X45473Y47499D01*
X48032D01*
Y51336D01*
D02*
G37*
G36*
X51182Y42378D02*
X50788D01*
Y39525D01*
Y36672D01*
X51182D01*
X52086Y37046D01*
X52156Y37215D01*
X52363Y37301D01*
X54331D01*
X54553Y37393D01*
X54922Y37465D01*
X55291Y37393D01*
X55513Y37301D01*
X57481D01*
X57703Y37393D01*
X58072Y37465D01*
X58441Y37393D01*
X58662Y37301D01*
X60631D01*
X60852Y37393D01*
X61221Y37465D01*
X61590Y37393D01*
X61812Y37301D01*
X63780D01*
X64002Y37393D01*
X64371Y37465D01*
X64740Y37393D01*
X64961Y37301D01*
X66930D01*
X67389Y37491D01*
X67579Y37950D01*
Y41100D01*
X67389Y41559D01*
X66930Y41749D01*
X64961D01*
X64740Y41658D01*
X64371Y41585D01*
X64002Y41658D01*
X63780Y41749D01*
X61812D01*
X61590Y41658D01*
X61221Y41585D01*
X60852Y41658D01*
X60631Y41749D01*
X58662D01*
X58441Y41658D01*
X58072Y41585D01*
X57703Y41658D01*
X57481Y41749D01*
X55513D01*
X55291Y41658D01*
X54922Y41585D01*
X54553Y41658D01*
X54331Y41749D01*
X52363D01*
X52156Y41835D01*
X52086Y42004D01*
X51182Y42378D01*
D02*
G37*
G36*
X57875Y61179D02*
X54037D01*
Y58619D01*
X54412Y57715D01*
X55316Y57341D01*
X57875D01*
Y61179D01*
D02*
G37*
G36*
X79781Y115650D02*
X77026D01*
Y111909D01*
X77401Y111005D01*
X78304Y110631D01*
X79781D01*
Y115650D01*
D02*
G37*
G36*
X95331D02*
X92576D01*
Y110631D01*
X94053D01*
X94957Y111005D01*
X95331Y111909D01*
Y115650D01*
D02*
G37*
G36*
X87993Y97046D02*
X86714D01*
Y94882D01*
X89272D01*
Y95768D01*
X88897Y96672D01*
X87993Y97046D01*
D02*
G37*
G36*
X75280Y102493D02*
X72327D01*
X71868Y102303D01*
X71732Y101976D01*
X69337D01*
X69062Y102090D01*
X65322D01*
X64863Y101899D01*
X64673Y101440D01*
Y100276D01*
X61380Y96984D01*
X60794Y95568D01*
Y86975D01*
X60631Y86866D01*
X60237D01*
Y84013D01*
Y81160D01*
X60631D01*
X61535Y81534D01*
X61604Y81703D01*
X61812Y81789D01*
X63780D01*
X63988Y81703D01*
X64057Y81534D01*
X64961Y81160D01*
X65355D01*
Y84013D01*
Y86866D01*
X64961D01*
X64798Y86975D01*
Y91267D01*
X65214Y91545D01*
X65322Y91500D01*
X66602D01*
Y94255D01*
X67192D01*
Y94846D01*
X70341D01*
Y95732D01*
X69966Y96636D01*
X69062Y97010D01*
X67723D01*
X67532Y97472D01*
X67898Y97838D01*
X69062D01*
X69383Y97971D01*
X71732D01*
X71868Y97644D01*
X72327Y97454D01*
X75280D01*
X75739Y97644D01*
X75929Y98103D01*
Y101843D01*
X75739Y102303D01*
X75280Y102493D01*
D02*
G37*
G36*
X68975Y113764D02*
X66713D01*
Y111501D01*
X67697D01*
X68601Y111876D01*
X68975Y112779D01*
Y113764D01*
D02*
G37*
G36*
X82438Y121849D02*
X80962D01*
Y116831D01*
X83717D01*
Y120571D01*
X83342Y121475D01*
X82438Y121849D01*
D02*
G37*
G36*
X79781D02*
X78304D01*
X77401Y121475D01*
X77026Y120571D01*
Y116831D01*
X79781D01*
Y121849D01*
D02*
G37*
G36*
X91395D02*
X89919D01*
X89015Y121475D01*
X88640Y120571D01*
Y116831D01*
X91395D01*
Y121849D01*
D02*
G37*
G36*
X94053D02*
X92576D01*
Y116831D01*
X95331D01*
Y120571D01*
X94957Y121475D01*
X94053Y121849D01*
D02*
G37*
G36*
X67697Y117208D02*
X66713D01*
Y114945D01*
X68975D01*
Y115929D01*
X68601Y116833D01*
X67697Y117208D01*
D02*
G37*
G36*
X91395Y115650D02*
X88640D01*
Y113289D01*
X88147Y112953D01*
X84210D01*
X83717Y113289D01*
Y115650D01*
X80962D01*
Y110631D01*
X82438D01*
X83061Y110889D01*
X83561Y110570D01*
Y108169D01*
X83751Y107710D01*
X84121Y107557D01*
Y102071D01*
X83891Y101976D01*
X81583D01*
X81448Y102303D01*
X80988Y102493D01*
X78036D01*
X77576Y102303D01*
X77386Y101843D01*
Y98103D01*
X77576Y97644D01*
X78036Y97454D01*
X80988D01*
X81448Y97644D01*
X81583Y97971D01*
X84020D01*
X84253Y97874D01*
X87993D01*
X88453Y98064D01*
X88643Y98524D01*
Y101476D01*
X88453Y101936D01*
X88126Y102071D01*
Y107520D01*
X88147D01*
X88606Y107710D01*
X88797Y108169D01*
Y110570D01*
X89297Y110889D01*
X89919Y110631D01*
X91395D01*
Y115650D01*
D02*
G37*
G36*
X65531Y117208D02*
X64547D01*
X63643Y116833D01*
X63269Y115929D01*
Y114945D01*
X65531D01*
Y117208D01*
D02*
G37*
G36*
X85533Y97046D02*
X84253D01*
X83349Y96672D01*
X82975Y95768D01*
Y94882D01*
X85533D01*
Y97046D01*
D02*
G37*
G36*
X43208Y71021D02*
X39371D01*
Y67184D01*
X41930D01*
X42834Y67558D01*
X43208Y68462D01*
Y71021D01*
D02*
G37*
G36*
X61615Y66197D02*
X59056D01*
Y62360D01*
X62893D01*
Y64919D01*
X62519Y65823D01*
X61615Y66197D01*
D02*
G37*
G36*
X48032Y71021D02*
X44195D01*
Y68462D01*
X44569Y67558D01*
X45473Y67184D01*
X48032D01*
Y71021D01*
D02*
G37*
G36*
X57875D02*
X54037D01*
Y68462D01*
X54412Y67558D01*
X55316Y67184D01*
X57875D01*
Y71021D01*
D02*
G37*
G36*
X53051D02*
X49213D01*
Y67184D01*
X51772D01*
X52676Y67558D01*
X53051Y68462D01*
Y71021D01*
D02*
G37*
G36*
X51772Y66197D02*
X49213D01*
Y62360D01*
X53051D01*
Y64919D01*
X52676Y65823D01*
X51772Y66197D01*
D02*
G37*
G36*
X62893Y61179D02*
X59056D01*
Y57341D01*
X61615D01*
X62519Y57715D01*
X62893Y58619D01*
Y61179D01*
D02*
G37*
G36*
X48032Y66197D02*
X45473D01*
X44569Y65823D01*
X44195Y64919D01*
Y62360D01*
X48032D01*
Y66197D01*
D02*
G37*
G36*
X41930D02*
X39371D01*
Y62360D01*
X43208D01*
Y64919D01*
X42834Y65823D01*
X41930Y66197D01*
D02*
G37*
G36*
X57875D02*
X55316D01*
X54412Y65823D01*
X54037Y64919D01*
Y62360D01*
X57875D01*
Y66197D01*
D02*
G37*
G36*
X62893Y71021D02*
X59056D01*
Y67184D01*
X61615D01*
X62519Y67558D01*
X62893Y68462D01*
Y71021D01*
D02*
G37*
G36*
X70341Y93665D02*
X67783D01*
Y91500D01*
X69062D01*
X69966Y91875D01*
X70341Y92779D01*
Y93665D01*
D02*
G37*
G36*
X54023Y90920D02*
X51268D01*
Y88263D01*
X52744D01*
X53648Y88638D01*
X54023Y89542D01*
Y90920D01*
D02*
G37*
G36*
X85533Y93701D02*
X82975D01*
Y92815D01*
X83349Y91911D01*
X84253Y91536D01*
X85533D01*
Y93701D01*
D02*
G37*
G36*
X89272D02*
X86714D01*
Y91536D01*
X87993D01*
X88897Y91911D01*
X89272Y92815D01*
Y93701D01*
D02*
G37*
G36*
X66930Y86866D02*
X66536D01*
Y84604D01*
X68208D01*
Y85588D01*
X67834Y86492D01*
X66930Y86866D01*
D02*
G37*
G36*
X57875Y76040D02*
X55316D01*
X54412Y75665D01*
X54037Y74761D01*
Y72202D01*
X57875D01*
Y76040D01*
D02*
G37*
G36*
X48032D02*
X45473D01*
X44569Y75665D01*
X44195Y74761D01*
Y72202D01*
X48032D01*
Y76040D01*
D02*
G37*
G36*
X51772D02*
X49213D01*
Y72202D01*
X53051D01*
Y74761D01*
X52676Y75665D01*
X51772Y76040D01*
D02*
G37*
G36*
X68208Y83423D02*
X66536D01*
Y81160D01*
X66930D01*
X67834Y81534D01*
X68208Y82438D01*
Y83423D01*
D02*
G37*
G36*
X61615Y76040D02*
X59056D01*
Y72202D01*
X62893D01*
Y74761D01*
X62519Y75665D01*
X61615Y76040D01*
D02*
G37*
G36*
X44898Y116579D02*
X41748D01*
X41289Y116388D01*
X41099Y115929D01*
Y112779D01*
X41289Y112320D01*
X41748Y112130D01*
X42155D01*
Y109620D01*
X41859D01*
X41400Y109430D01*
X41210Y108971D01*
Y105427D01*
X41400Y104968D01*
X41859Y104778D01*
X44615D01*
X45074Y104968D01*
X45264Y105427D01*
Y108971D01*
X45074Y109430D01*
X44615Y109620D01*
X44319D01*
Y112130D01*
X44898D01*
X45357Y112320D01*
X45547Y112779D01*
Y115929D01*
X45357Y116388D01*
X44898Y116579D01*
D02*
G37*
G36*
X52475Y113764D02*
X50213D01*
Y111501D01*
X51197D01*
X52101Y111876D01*
X52475Y112779D01*
Y113764D01*
D02*
G37*
G36*
X49031D02*
X46769D01*
Y112779D01*
X47143Y111876D01*
X48047Y111501D01*
X49031D01*
Y113764D01*
D02*
G37*
G36*
X34858Y112299D02*
X31708D01*
X31249Y112109D01*
X31059Y111649D01*
Y104956D01*
X31249Y104497D01*
X31708Y104307D01*
X34858D01*
X35317Y104497D01*
X35508Y104956D01*
Y111649D01*
X35317Y112109D01*
X34858Y112299D01*
D02*
G37*
G36*
X24031Y99642D02*
X21375D01*
Y98460D01*
X21749Y97556D01*
X22653Y97182D01*
X24031D01*
Y99642D01*
D02*
G37*
G36*
X8907Y101764D02*
X4413D01*
Y99584D01*
X6382D01*
X8341Y100396D01*
X8907Y101764D01*
D02*
G37*
G36*
X24031Y103282D02*
X22653D01*
X21749Y102908D01*
X21375Y102004D01*
Y100823D01*
X24031D01*
Y103282D01*
D02*
G37*
G36*
X24031Y119424D02*
X22653D01*
X21749Y119049D01*
X21375Y118146D01*
Y116964D01*
X24031D01*
Y119424D01*
D02*
G37*
G36*
Y115783D02*
X21375D01*
Y114602D01*
X21749Y113698D01*
X22653Y113324D01*
X24031D01*
Y115783D01*
D02*
G37*
G36*
X49031Y117208D02*
X48047D01*
X47143Y116833D01*
X46769Y115929D01*
Y114945D01*
X49031D01*
Y117208D01*
D02*
G37*
G36*
X51197D02*
X50213D01*
Y114945D01*
X52475D01*
Y115929D01*
X52101Y116833D01*
X51197Y117208D01*
D02*
G37*
G36*
X24970Y95098D02*
X23788D01*
X22884Y94723D01*
X22510Y93819D01*
Y92441D01*
X24970D01*
Y95098D01*
D02*
G37*
G36*
X19232Y58020D02*
X16773D01*
Y57232D01*
X17147Y56328D01*
X18051Y55954D01*
X19232D01*
Y58020D01*
D02*
G37*
G36*
Y61267D02*
X18051D01*
X17147Y60892D01*
X16773Y59988D01*
Y59201D01*
X19232D01*
Y61267D01*
D02*
G37*
%LPD*%
D10*
X80371Y116240D02*
D03*
X91986D02*
D03*
D11*
X86179Y110236D02*
D03*
X63418Y12500D02*
D03*
Y18209D02*
D03*
X38000Y12646D02*
D03*
Y18354D02*
D03*
X30751Y30453D02*
D03*
Y24745D02*
D03*
D12*
X56413Y11760D02*
D03*
Y15500D02*
D03*
Y19240D02*
D03*
X45587D02*
D03*
Y11760D02*
D03*
D13*
X19823Y41664D02*
D03*
Y47176D02*
D03*
Y58610D02*
D03*
Y53098D02*
D03*
D14*
X67192Y99964D02*
D03*
Y94255D02*
D03*
X37854Y31044D02*
D03*
Y25335D02*
D03*
X86123Y100000D02*
D03*
Y94291D02*
D03*
D15*
X23647Y30847D02*
D03*
Y25532D02*
D03*
D16*
X25560Y91851D02*
D03*
X30875D02*
D03*
D17*
X3823Y102354D02*
D03*
Y107354D02*
D03*
Y112354D02*
D03*
Y117354D02*
D03*
Y122354D02*
D03*
D18*
X44969Y91510D02*
D03*
X50677D02*
D03*
D19*
X43237Y107199D02*
D03*
X48749D02*
D03*
X64978Y107199D02*
D03*
X59466D02*
D03*
D20*
X79512Y99973D02*
D03*
X73803D02*
D03*
D21*
X31300Y39525D02*
D03*
X34450D02*
D03*
X37599D02*
D03*
X40749D02*
D03*
X43898D02*
D03*
X47048D02*
D03*
X50198D02*
D03*
X53347D02*
D03*
X56497D02*
D03*
X59646D02*
D03*
X62796D02*
D03*
X65946D02*
D03*
Y84013D02*
D03*
X62796D02*
D03*
X59646D02*
D03*
X56497D02*
D03*
X53347D02*
D03*
X50198D02*
D03*
X47048D02*
D03*
X43898D02*
D03*
X40749D02*
D03*
X37599D02*
D03*
X34450D02*
D03*
X31300D02*
D03*
D22*
X69095Y44446D02*
D03*
Y47596D02*
D03*
Y50745D02*
D03*
Y53895D02*
D03*
Y57045D02*
D03*
Y60194D02*
D03*
Y63344D02*
D03*
Y66493D02*
D03*
Y69643D02*
D03*
Y72793D02*
D03*
Y75942D02*
D03*
Y79092D02*
D03*
X28150D02*
D03*
Y75942D02*
D03*
Y72793D02*
D03*
Y69643D02*
D03*
Y66493D02*
D03*
Y63344D02*
D03*
Y60194D02*
D03*
Y57045D02*
D03*
Y53895D02*
D03*
Y50745D02*
D03*
Y47596D02*
D03*
Y44446D02*
D03*
D23*
X38780Y61769D02*
D03*
Y71612D02*
D03*
X48623Y51927D02*
D03*
Y61769D02*
D03*
Y71612D02*
D03*
X58465Y51927D02*
D03*
Y61769D02*
D03*
Y71612D02*
D03*
D24*
X38780Y51927D02*
D03*
X1969Y90551D02*
D03*
Y82677D02*
D03*
Y74803D02*
D03*
Y66929D02*
D03*
Y59055D02*
D03*
Y51181D02*
D03*
Y43307D02*
D03*
Y35433D02*
D03*
Y27559D02*
D03*
Y19685D02*
D03*
X96457D02*
D03*
Y27559D02*
D03*
Y35433D02*
D03*
Y43307D02*
D03*
Y51181D02*
D03*
Y59055D02*
D03*
Y66929D02*
D03*
Y74803D02*
D03*
Y82677D02*
D03*
Y90551D02*
D03*
D25*
X33283Y108303D02*
D03*
D26*
X30921Y116374D02*
D03*
Y100232D02*
D03*
X24622Y116374D02*
D03*
Y100232D02*
D03*
D27*
X49622Y114354D02*
D03*
X43323D02*
D03*
X59823D02*
D03*
X66122D02*
D03*
D28*
X72677Y18209D02*
X74823Y20354D01*
X62323Y25354D02*
X63418Y24259D01*
Y18209D02*
X72677D01*
X37595Y12240D02*
X38075Y11760D01*
X63418Y18209D02*
Y24259D01*
X43898Y84013D02*
Y90440D01*
D29*
X30554Y31044D02*
X37854D01*
X40749Y39525D02*
X43898D01*
X23647Y30847D02*
X30357D01*
X38400Y31044D02*
X40749Y33392D01*
Y39525D01*
X18555Y30847D02*
X23647D01*
X43898Y39525D02*
X47048D01*
X28150Y44446D02*
X32454D01*
X23899Y41664D02*
X26681Y44446D01*
X19823Y41664D02*
X23899D01*
X19975Y12646D02*
X38000D01*
X17000Y15621D02*
X19975Y12646D01*
X17000Y15621D02*
Y29292D01*
X18555Y30847D01*
D30*
X30357D02*
X30554Y31044D01*
X61986Y18209D02*
X63418D01*
X37854Y31044D02*
X38400D01*
X26681Y44446D02*
X28150D01*
D31*
X14100Y30600D02*
X19500Y36000D01*
X14100Y11700D02*
Y30600D01*
X15955Y9955D02*
X24790D01*
X37599Y80005D02*
Y84013D01*
X67192Y99964D02*
X67202Y99973D01*
X86123Y110181D02*
X86179Y110236D01*
X86097Y99973D02*
X86123Y100000D01*
X47048Y80000D02*
Y84013D01*
X37595Y80000D02*
X37599Y80005D01*
X3823Y117354D02*
X12000D01*
X27500Y104000D02*
Y112953D01*
X30921Y91897D02*
Y100232D01*
X27500Y112953D02*
X30921Y116374D01*
X27500Y104000D02*
X30921Y100579D01*
Y100232D02*
Y100579D01*
X30875Y91851D02*
X34649D01*
X37599Y88901D01*
Y84013D02*
Y88901D01*
X0Y74803D02*
X6500D01*
X15710Y84013D01*
X31300D01*
X0Y82677D02*
X8000D01*
X13323Y88000D01*
X33000D01*
X34450Y86550D01*
Y84013D02*
Y86550D01*
X69095Y66493D02*
X86179D01*
X28150Y47596D02*
Y50745D01*
X69095Y63344D02*
X82325D01*
X69095Y60194D02*
X81538D01*
X40749Y84013D02*
Y95280D01*
X34450Y37508D02*
Y39525D01*
X69095Y79092D02*
X79092D01*
X69095Y75942D02*
X83816D01*
X69095Y57045D02*
X80751D01*
X69095Y72793D02*
X88541D01*
X69095Y53895D02*
X79782D01*
X69095Y69643D02*
X89328D01*
X69095Y50745D02*
X78740D01*
X69095Y47596D02*
X78320D01*
X64978Y107199D02*
Y109199D01*
X59823Y114354D02*
X64978Y109199D01*
X79092Y79092D02*
X90551Y90551D01*
X94488D01*
X83816Y75942D02*
X90551Y82677D01*
X98425D01*
X89328Y69643D02*
X92042Y66929D01*
X98425D01*
X86179Y66493D02*
X93617Y59055D01*
X98425D01*
X90551Y74803D02*
X98425D01*
X88541Y72793D02*
X90551Y74803D01*
X94488Y51181D02*
X98425D01*
X82325Y63344D02*
X94488Y51181D01*
X81538Y60194D02*
X90551Y51181D01*
Y47244D02*
Y51181D01*
Y47244D02*
X94488Y43307D01*
X98425D01*
X80751Y57045D02*
X86614Y51181D01*
Y39370D02*
Y51181D01*
Y39370D02*
X90551Y35433D01*
X98425D01*
X79782Y53895D02*
X84323Y49354D01*
Y30354D02*
Y49354D01*
Y30354D02*
X86823Y27854D01*
X98130D01*
X98425Y27559D01*
X14560Y79092D02*
X28150D01*
X2398Y66929D02*
X14560Y79092D01*
X0Y66929D02*
X2398D01*
X14911Y75942D02*
X28150D01*
X6323Y67354D02*
X14911Y75942D01*
X6323Y61854D02*
Y67354D01*
X3524Y59055D02*
X6323Y61854D01*
X0Y59055D02*
X3524D01*
X15261Y72793D02*
X28150D01*
X8323Y65854D02*
X15261Y72793D01*
X8323Y53354D02*
Y65854D01*
X6150Y51181D02*
X8323Y53354D01*
X0Y51181D02*
X6150D01*
X15612Y69643D02*
X28150D01*
X10323Y64354D02*
X15612Y69643D01*
X10323Y46354D02*
Y64354D01*
X7323Y43354D02*
X10323Y46354D01*
X47Y43354D02*
X7323D01*
X0Y43307D02*
X47Y43354D01*
X15462Y66493D02*
X28150D01*
X11823Y62854D02*
X15462Y66493D01*
X11823Y40354D02*
Y62854D01*
X6902Y35433D02*
X11823Y40354D01*
X0Y35433D02*
X6902D01*
X15312Y63344D02*
X28150D01*
X13823Y61854D02*
X15312Y63344D01*
X13823Y34354D02*
Y61854D01*
X7028Y27559D02*
X13823Y34354D01*
X0Y27559D02*
X7028D01*
X24663Y60194D02*
X28150D01*
X23323Y58854D02*
X24663Y60194D01*
X23323Y50676D02*
Y58854D01*
X19823Y47176D02*
X23323Y50676D01*
X19823Y47176D02*
Y53098D01*
X40749Y95280D02*
X48749Y103280D01*
Y107199D01*
X43237D02*
Y114269D01*
X43323Y114354D01*
X3823Y107354D02*
X11811D01*
X78740Y50745D02*
X82310Y47176D01*
Y11424D02*
Y47176D01*
X76964Y6079D02*
X82310Y11424D01*
X76964Y0D02*
Y6079D01*
X78320Y47596D02*
X79012Y46904D01*
Y17683D02*
Y46904D01*
X69090Y7762D02*
X79012Y17683D01*
X69090Y0D02*
Y7762D01*
X29721Y0D02*
Y5024D01*
X24790Y9955D02*
X29721Y5024D01*
X21846Y0D02*
Y7641D01*
X20988Y8500D02*
X21846Y7641D01*
X15000Y8500D02*
X20988D01*
X12500Y11000D02*
X15000Y8500D01*
X12500Y11000D02*
Y31177D01*
X19000Y37500D01*
X19500Y36000D02*
X32941D01*
X34450Y37508D01*
X19000Y37500D02*
X29275D01*
X31300Y39525D01*
D32*
X62796Y84013D02*
Y95568D01*
X67192Y99964D01*
X67202Y99973D02*
X73803D01*
X86123Y100000D02*
Y110181D01*
X79512Y99973D02*
X86097D01*
D33*
X3823Y112354D02*
X11823D01*
D34*
X15845Y9955D02*
X15955D01*
X14100Y11700D02*
X15845Y9955D01*
D35*
X37595Y1969D02*
D03*
X29721D02*
D03*
X45469D02*
D03*
X53342D02*
D03*
X61216D02*
D03*
X69090D02*
D03*
X21846D02*
D03*
X76964D02*
D03*
D36*
X37595Y80000D02*
D03*
X23850Y47244D02*
D03*
X47048Y80000D02*
D03*
X12000Y117354D02*
D03*
X11823Y112354D02*
D03*
X11811Y107354D02*
D03*
X2400Y4600D02*
D03*
X4900Y9600D02*
D03*
X2400Y14600D02*
D03*
X4900Y39600D02*
D03*
X2400Y94600D02*
D03*
X7400Y4600D02*
D03*
X9900Y9600D02*
D03*
X7400Y14600D02*
D03*
X9900Y19600D02*
D03*
X7400Y24600D02*
D03*
Y94600D02*
D03*
X12400Y4600D02*
D03*
X14900Y119600D02*
D03*
X17400Y4600D02*
D03*
X19900Y19600D02*
D03*
Y119600D02*
D03*
X24900Y19600D02*
D03*
X22400Y104600D02*
D03*
X24900Y109600D02*
D03*
X29900Y9600D02*
D03*
Y19600D02*
D03*
Y109600D02*
D03*
X34900Y99600D02*
D03*
Y119600D02*
D03*
X37400Y34600D02*
D03*
Y94600D02*
D03*
X39900Y99600D02*
D03*
X37400Y104600D02*
D03*
X39900Y109600D02*
D03*
X37400Y114600D02*
D03*
X39900Y119600D02*
D03*
X42400Y24600D02*
D03*
X44900Y29600D02*
D03*
X42400Y54600D02*
D03*
X44900Y119600D02*
D03*
X47400Y24600D02*
D03*
X49900Y29600D02*
D03*
X47400Y34600D02*
D03*
Y44600D02*
D03*
X49900Y99600D02*
D03*
Y119600D02*
D03*
X52400Y24600D02*
D03*
X54900Y29600D02*
D03*
X52400Y34600D02*
D03*
Y44600D02*
D03*
X54900Y79600D02*
D03*
Y89600D02*
D03*
X57400Y4600D02*
D03*
Y24600D02*
D03*
X59900Y29600D02*
D03*
X57400Y34600D02*
D03*
Y44600D02*
D03*
X59900Y79600D02*
D03*
Y89600D02*
D03*
X57400Y94600D02*
D03*
X59900Y99600D02*
D03*
Y119600D02*
D03*
X62400Y24600D02*
D03*
X64900Y29600D02*
D03*
X62400Y34600D02*
D03*
Y44600D02*
D03*
X64900Y49600D02*
D03*
Y59600D02*
D03*
Y69600D02*
D03*
Y79600D02*
D03*
Y119600D02*
D03*
X67400Y14600D02*
D03*
X69900Y19600D02*
D03*
X67400Y24600D02*
D03*
X69900Y29600D02*
D03*
X67400Y34600D02*
D03*
X69900Y39600D02*
D03*
Y89600D02*
D03*
Y109600D02*
D03*
Y119600D02*
D03*
X74900Y9600D02*
D03*
X72400Y14600D02*
D03*
X74900Y19600D02*
D03*
X72400Y24600D02*
D03*
X74900Y29600D02*
D03*
X72400Y34600D02*
D03*
X74900Y39600D02*
D03*
X72400Y84600D02*
D03*
X74900Y89600D02*
D03*
X72400Y94600D02*
D03*
Y104600D02*
D03*
X74900Y109600D02*
D03*
X72400Y114600D02*
D03*
X74900Y119600D02*
D03*
X77400Y84600D02*
D03*
X79900Y89600D02*
D03*
X77400Y94600D02*
D03*
Y104600D02*
D03*
X79900Y109600D02*
D03*
X82400Y4600D02*
D03*
X84900Y9600D02*
D03*
Y19600D02*
D03*
Y89600D02*
D03*
X82400Y94600D02*
D03*
Y104600D02*
D03*
X84900Y119600D02*
D03*
X87400Y4600D02*
D03*
X89900Y9600D02*
D03*
X87400Y14600D02*
D03*
X89900Y19600D02*
D03*
X87400Y24600D02*
D03*
Y34600D02*
D03*
X89900Y39600D02*
D03*
Y59600D02*
D03*
Y99600D02*
D03*
X87400Y114600D02*
D03*
X92400Y4600D02*
D03*
X94900Y9600D02*
D03*
X92400Y14600D02*
D03*
Y24600D02*
D03*
Y64600D02*
D03*
Y94600D02*
D03*
X94900Y99600D02*
D03*
X92400Y104600D02*
D03*
X94900Y109600D02*
D03*
X43200Y7000D02*
D03*
X48600Y6900D02*
D03*
M02*
