M48
;Layer_Color=9474304
;FILE_FORMAT=2:5
INCH,TZ
;TYPE=PLATED
T1F00S00C0.01200
T2F00S00C0.02953
%
T01
X2400Y4600
X7400
X12400
X17400
X9900Y9600
X4900
X2400Y14600
X7400
X9900Y19600
X7400Y24600
X4900Y39600
X23850Y47244
X37400Y34600
X29900Y19600
X24900
X19900
X29900Y9600
X37595Y80000
X37400Y94600
X34900Y99600
X39900
X37400Y104600
X39900Y109600
X37400Y114600
X34900Y119600
X39900
X19900
X14900
X12000Y117354
X11823Y112354
X11811Y107354
X22400Y104600
X24900Y109600
X29900
X7400Y94600
X2400
X49900Y99600
X59900
X57400Y94600
X54900Y89600
X59900
Y79600
X54900
X47048Y80000
X64900Y79600
Y69600
Y59600
Y49600
X62400Y44600
X57400
X52400
X47400
Y34600
X52400
X57400
X62400
X67400
X72400
X69900Y29600
X64900
X59900
X54900
X49900
X44900
X42400Y24600
X47400
X52400
X57400
X62400
X67400
X72400
X69900Y19600
X74900
X72400Y14600
X67400
X74900Y9600
X84900
X89900
X94900
X92400Y4600
X87400
X82400
X87400Y14600
X92400
X89900Y19600
X84900
X87400Y24600
X92400
X87400Y34600
X89900Y39600
X74900
X69900
X74900Y29600
X57400Y4600
X48600Y6900
X43200Y7000
X42400Y54600
X89900Y59600
X92400Y64600
Y94600
X89900Y99600
X94900
X92400Y104600
X94900Y109600
X87400Y114600
X84900Y119600
X74900
X69900
X64900
X59900
X49900
X44900
X72400Y114600
X69900Y109600
X74900
X79900
X77400Y104600
X72400
Y94600
X77400
X82400
X79900Y89600
X74900
X69900
X72400Y84600
X77400
X84900Y89600
X82400Y104600
T02
X0Y19685
Y27559
Y35433
Y43307
Y51181
Y59055
Y66929
Y74803
Y82677
Y90551
X21846Y0
X29721
X37595
X45469
X53342
X61216
X69090
X76964
X98425Y19685
Y27559
Y35433
Y43307
Y51181
Y59055
Y66929
Y74803
Y82677
Y90551
M30
