G04 Layer_Color=255*
%FSLAX25Y25*%
%MOIN*%
G70*
G01*
G75*
%ADD10R,0.04134X0.08661*%
%ADD11R,0.03937X0.04134*%
%ADD12R,0.03937X0.02362*%
%ADD13R,0.03543X0.02756*%
%ADD14R,0.03740X0.02953*%
%ADD15R,0.03937X0.03543*%
%ADD16R,0.03543X0.03937*%
%ADD17O,0.07874X0.02756*%
%ADD18R,0.04134X0.03937*%
%ADD19R,0.02756X0.03543*%
%ADD20R,0.02953X0.03740*%
%ADD21R,0.01968X0.03150*%
%ADD22R,0.03150X0.01968*%
%ADD23R,0.06299X0.06299*%
%ADD24R,0.03937X0.03937*%
%ADD25R,0.03150X0.06693*%
%ADD26R,0.03937X0.03543*%
%ADD27R,0.03150X0.03150*%
%ADD35R,0.03937X0.03937*%
D10*
X80371Y116240D02*
D03*
X91986D02*
D03*
D11*
X86179Y110236D02*
D03*
X63418Y12500D02*
D03*
Y18209D02*
D03*
X38000Y12646D02*
D03*
Y18354D02*
D03*
X30751Y30453D02*
D03*
Y24745D02*
D03*
D12*
X56413Y11760D02*
D03*
Y15500D02*
D03*
Y19240D02*
D03*
X45587D02*
D03*
Y11760D02*
D03*
D13*
X19823Y41664D02*
D03*
Y47176D02*
D03*
Y58610D02*
D03*
Y53098D02*
D03*
D14*
X67192Y99964D02*
D03*
Y94255D02*
D03*
X37854Y31044D02*
D03*
Y25335D02*
D03*
X86123Y100000D02*
D03*
Y94291D02*
D03*
D15*
X23647Y30847D02*
D03*
Y25532D02*
D03*
D16*
X25560Y91851D02*
D03*
X30875D02*
D03*
D17*
X3823Y102354D02*
D03*
Y107354D02*
D03*
Y112354D02*
D03*
Y117354D02*
D03*
Y122354D02*
D03*
D18*
X44969Y91510D02*
D03*
X50677D02*
D03*
D19*
X43237Y107199D02*
D03*
X48749D02*
D03*
X64978Y107199D02*
D03*
X59466D02*
D03*
D20*
X79512Y99973D02*
D03*
X73803D02*
D03*
D21*
X31300Y39525D02*
D03*
X34450D02*
D03*
X37599D02*
D03*
X40749D02*
D03*
X43898D02*
D03*
X47048D02*
D03*
X50198D02*
D03*
X53347D02*
D03*
X56497D02*
D03*
X59646D02*
D03*
X62796D02*
D03*
X65946D02*
D03*
Y84013D02*
D03*
X62796D02*
D03*
X59646D02*
D03*
X56497D02*
D03*
X53347D02*
D03*
X50198D02*
D03*
X47048D02*
D03*
X43898D02*
D03*
X40749D02*
D03*
X37599D02*
D03*
X34450D02*
D03*
X31300D02*
D03*
D22*
X69095Y44446D02*
D03*
Y47596D02*
D03*
Y50745D02*
D03*
Y53895D02*
D03*
Y57045D02*
D03*
Y60194D02*
D03*
Y63344D02*
D03*
Y66493D02*
D03*
Y69643D02*
D03*
Y72793D02*
D03*
Y75942D02*
D03*
Y79092D02*
D03*
X28150D02*
D03*
Y75942D02*
D03*
Y72793D02*
D03*
Y69643D02*
D03*
Y66493D02*
D03*
Y63344D02*
D03*
Y60194D02*
D03*
Y57045D02*
D03*
Y53895D02*
D03*
Y50745D02*
D03*
Y47596D02*
D03*
Y44446D02*
D03*
D23*
X38780Y61769D02*
D03*
Y71612D02*
D03*
X48623Y51927D02*
D03*
Y61769D02*
D03*
Y71612D02*
D03*
X58465Y51927D02*
D03*
Y61769D02*
D03*
Y71612D02*
D03*
D24*
X38780Y51927D02*
D03*
X1969Y90551D02*
D03*
Y82677D02*
D03*
Y74803D02*
D03*
Y66929D02*
D03*
Y59055D02*
D03*
Y51181D02*
D03*
Y43307D02*
D03*
Y35433D02*
D03*
Y27559D02*
D03*
Y19685D02*
D03*
X96457D02*
D03*
Y27559D02*
D03*
Y35433D02*
D03*
Y43307D02*
D03*
Y51181D02*
D03*
Y59055D02*
D03*
Y66929D02*
D03*
Y74803D02*
D03*
Y82677D02*
D03*
Y90551D02*
D03*
D25*
X33283Y108303D02*
D03*
D26*
X30921Y116374D02*
D03*
Y100232D02*
D03*
X24622Y116374D02*
D03*
Y100232D02*
D03*
D27*
X49622Y114354D02*
D03*
X43323D02*
D03*
X59823D02*
D03*
X66122D02*
D03*
D35*
X37595Y1969D02*
D03*
X29721D02*
D03*
X45469D02*
D03*
X53342D02*
D03*
X61216D02*
D03*
X69090D02*
D03*
X21846D02*
D03*
X76964D02*
D03*
M02*
