M48
;Layer_Color=9474304
;FILE_FORMAT=2:5
INCH,TZ
;TYPE=PLATED
T1F00S00C0.01200
T2F00S00C0.03543
T3F00S00C0.04724
T4F00S00C0.07874
%
T01
X-76201Y9724
X-73701Y14724
X-68701
X-63701
X-58701
X-45669Y13780
X-18110
X-3701Y14724
X-83701
X-98701
X-103701
X-108701
X-113701
X-118701
X-121201Y9724
X-126201
X-136201
X-148701Y14724
X-178701
X-193701
X-116201Y9724
X-111201
Y19724
X-116201
X-126201
X-122886Y24016
X-136201Y19724
X-158701Y24724
X-163701
X-168701
X-171201Y29724
X-176201
X-181201
Y19724
X-176201
X-173701Y34724
X-168701
X-163701
X-158701
X-153701
X-156401Y41224
X-161201Y39724
X-166201
X-171201
X-168701Y44724
X-183701
X-188701
X-193701
X-186201Y39724
X-191201Y59724
X-188701Y64724
X-183701
X-186201Y69724
X-191201
X-188701Y74724
X-183701
X-173701Y84724
X-168701
X-163701
X-158701
X-153701
X-148701
X-143701
X-146201Y89724
X-151201
X-156201
X-161201
X-166201
X-171201
X-176201
X-173701Y94724
X-168701
X-163701
X-158701
X-153701
X-156201Y99724
X-161201
X-166201
X-171201
X-176201
X-173701Y104724
X-168701
X-163701
X-158701
X-153701
Y114724
X-158701
X-163701
X-168701
X-171260Y110236
X-171201Y119724
X-166201
X-161201
X-156201
X-158701Y124724
X-163701
X-168701
X-171201Y129724
X-166201
X-161201
Y139724
X-166201
X-168701Y144724
X-163701
X-166201Y149724
X-171201
Y159724
X-166201
X-161201
X-176690Y169291
X-183400
X-191201Y169724
Y149724
X-188701Y144724
X-191201Y139724
X-188701Y134724
X-191201Y129724
X-188701Y124724
X-191201Y119724
X-186201
X-188701Y114724
X-191201Y109724
X-188701Y104724
X-183701
X-186201Y99724
X-191201
Y89724
X-161201Y79724
X-156201
X-148701Y74724
X-143701
X-146201Y69724
X-141201
X-146201Y59724
X-136201
X-115551Y66824
X-112205Y68898
X-112598Y80315
Y84646
Y88976
X-116929
Y84646
Y80315
X-108268
Y84646
Y88976
X-94882Y87008
X-91201Y89724
X-86201
X-88701Y94724
X-83701
X-86201Y99724
X-91201
X-101201
X-126201
X-131201
X-133701Y104724
X-138701
X-141201Y99724
X-143701Y110236
Y114724
X-138701
X-133701
X-128701
X-131201Y109724
X-136201
Y119724
X-141201
X-131201
X-133701Y124724
X-143701Y134252
X-169291
X-117126
X-114173Y118602
X-106791Y122638
X-83701Y124724
X-91339Y134252
X-88701Y154724
X-96201Y169724
X-101201
X-126201
X-136201
X-138701Y164724
X-126201Y109724
X-128701Y104724
X-123701
Y94724
X-128701
X-133858Y91732
X-126772Y83071
X-98701Y74724
X-83465Y77165
X-85433Y64173
X-97201Y55324
X-101378Y55347
X-96201Y19724
X-86201
X-146201Y39724
X-161201Y29724
X-166201
Y59724
X-168701Y64724
X-166201Y69724
X-81201Y89724
X-76201
X-78701Y94724
X-73701
X-76201Y99724
X-81201
X-77854Y118898
X-81201Y139724
X-78701Y154724
X-68701
X-58701
X-61201Y149724
X-56201
Y139724
X-65748Y134252
X-40157
X-31201Y139724
X-36201Y149724
X-41201
X-38701Y154724
X-48701
X-28701
X-21201Y149724
X-11201
X-6201
X-8701Y154724
X-13701
X-16201Y159724
X-11201
X-6201
X-8701Y164724
X-13701
X-16201Y169724
X-21201
X-11201
X-6201
X-3701Y164724
Y154724
Y144724
X-6201Y139724
X-3701Y134724
Y124724
X-6201Y119724
X-11201
X-13701Y114724
X-8701
X-3701
X-6201Y109724
X-11201
X-16201
X-21201
X-23701Y104724
X-18701
X-13701
X-3701
Y94724
X-6201Y89724
X-3701Y84724
X-16201Y79724
X-21201
X-26201
X-31201
X-36201
X-41201
Y89724
X-46201
X-51201
X-56201
Y99724
X-51201
X-46201
X-41201
X-36201
X-31201
X-26201
X-21201
Y89724
X-26201
X-31201
X-36201
X-33701Y74724
X-28701
Y64724
X-28801Y60403
X-28701Y54724
X-18701
X-23701Y64724
X-13701
X-43701
X-59941Y59941
X-66201Y49724
X-76201
X-80315Y18898
X-18110
Y24016
X-31201Y109724
X-28701Y114724
X-26201Y119724
X-21201
X-36201
X-38701Y114724
X-43701
X-53701
X-51201Y119724
X-14173Y134252
X-56201Y169724
X-53701Y174724
X-56201Y179724
X-51201
X-46201
Y189724
X-51201
X-56201
X-61201
X-66201
X-71201
X-76201
X-81201
X-76201Y179724
X-66201
X-36201
Y189724
X-41201
X-31201
X-26201
X-21201
X-16201
X-18701Y184724
X-13701
X-16201Y179724
X-11201
X-6201
X-8701Y174724
X-13701
X-18701
X-26201Y179724
X-3701Y174724
X-86201Y179724
X-91201
X-93701Y174724
X-101201Y179724
X-106201
X-116201
X-126201
X-131201
Y189724
X-136201
X-141201
X-146201
X-151201
X-161201
X-171201
X-181201
X-191201Y179724
X-193701Y174724
X-188701
X-145669Y174016
X-126201Y189724
X-121201
X-116201
X-111201
X-106201
X-101201
X-96201
X-91201
X-86201
T02
X-190551Y25433
Y35433
T03
X-133150Y35433
X-123150
X-113150
X-103150
X-93150
X-83150
X-83150Y161417
X-93150
X-103150
X-113150
X-123150
X-133150
X-73150
X-63150
X-53150
X-43150
X-33150
X-23150
X-23150Y35433
X-33150
X-43150
X-53150
X-63150
X-73150
T04
X-7874Y7874
X-188976
X-9843Y98425
X-7874Y188976
X-188976
M30
